<?xml version="1.0" standalone="no"?>
<!DOCTYPE svg PUBLIC "-//W3C//DTD SVG 20010904//EN"
 "http://www.w3.org/TR/2001/REC-SVG-20010904/DTD/svg10.dtd">
<svg version="1.0" xmlns="http://www.w3.org/2000/svg"
 width="626.000000pt" height="626.000000pt" viewBox="0 0 626.000000 626.000000"
 preserveAspectRatio="xMidYMid meet">

<g transform="translate(0.000000,626.000000) scale(0.100000,-0.100000)"
fill="#000000" stroke="none">
<path d="M2880 4595 c-387 -53 -738 -240 -960 -511 -8 -10 -15 -25 -15 -34 0
-8 -7 -15 -15 -15 -8 -1 -14 -6 -13 -13 2 -7 -3 -11 -10 -9 -6 1 -11 -6 -10
-16 0 -10 -1 -16 -4 -13 -10 10 -45 -44 -39 -60 3 -8 9 -13 14 -10 4 2 8 -6 7
-20 0 -28 -20 -33 -20 -4 0 39 -21 22 -57 -46 -30 -57 -34 -71 -23 -81 12 -11
14 -9 13 10 -2 38 2 47 17 47 8 0 15 -9 15 -19 0 -10 6 -21 14 -24 10 -4 12 0
9 14 -3 10 0 19 6 19 6 0 11 -7 11 -15 0 -14 17 -20 48 -16 6 1 12 -3 12 -9 0
-6 -4 -8 -10 -5 -16 10 -12 -11 5 -25 11 -9 12 -16 4 -26 -11 -14 -30 -15 -40
-1 -3 4 -14 -2 -25 -14 -10 -13 -14 -19 -7 -16 7 4 13 0 15 -10 4 -20 -49 -99
-64 -95 -5 1 -7 -2 -3 -8 8 -13 -19 -52 -30 -42 -5 4 -5 1 -1 -5 9 -17 -12
-55 -26 -47 -7 4 -8 3 -4 -4 4 -6 -7 -39 -24 -72 -17 -34 -45 -98 -62 -143
l-30 -82 5 -170 c5 -130 12 -195 30 -275 103 -442 395 -802 811 -1001 227
-108 492 -165 701 -151 39 2 79 4 90 3 44 -1 216 31 315 60 124 37 354 144
344 161 -4 7 -3 8 4 4 17 -10 141 85 219 168 94 101 135 179 141 272 4 62 1
80 -18 116 -26 52 -60 89 -72 82 -5 -3 -7 0 -6 6 4 16 -75 56 -147 75 -139 36
-325 13 -570 -70 -339 -115 -465 -140 -695 -139 -183 1 -266 17 -389 74 -380
178 -571 667 -434 1105 50 158 124 275 246 391 120 115 261 188 454 236 112
28 337 30 451 4 228 -51 437 -154 674 -334 56 -43 108 -82 117 -89 12 -9 33
-8 91 2 162 30 435 15 559 -29 24 -9 45 -15 47 -13 2 1 -17 44 -41 94 -224
471 -665 777 -1215 843 -112 13 -292 11 -410 -5z m-986 -635 c-5 -5 -10 3 -11
18 -1 22 0 24 9 8 6 -10 6 -22 2 -26z m-31 -7 c-3 -7 -6 -13 -8 -13 -2 0 -5 6
-8 13 -3 8 1 14 8 14 7 0 11 -6 8 -14z m-66 -103 c2 -12 -3 -20 -12 -20 -8 0
-15 7 -15 15 0 8 5 15 11 15 5 0 7 6 3 13 -4 6 -3 9 1 4 5 -4 10 -16 12 -27z
m104 -103 c-10 -9 -11 -8 -5 6 3 10 9 15 12 12 3 -3 0 -11 -7 -18z"/>
<path d="M1843 3751 c4 -25 22 -46 30 -34 3 4 -3 19 -14 32 -19 23 -19 23 -16
2z"/>
<path d="M1771 3686 c-9 -10 -8 -16 4 -26 11 -9 12 -16 5 -25 -8 -10 -7 -15 2
-21 7 -4 10 -4 6 1 -4 4 2 17 15 28 16 15 18 19 5 14 -17 -6 -24 7 -19 36 2
11 -5 9 -18 -7z"/>
<path d="M1670 3649 c0 -5 5 -7 10 -4 6 3 10 8 10 11 0 2 -4 4 -10 4 -5 0 -10
-5 -10 -11z"/>
<path d="M4040 3434 c-187 -37 -310 -81 -586 -210 -111 -51 -239 -107 -285
-124 -111 -41 -292 -85 -413 -100 -111 -14 -352 -9 -434 10 -57 13 -72 9 -54
-13 7 -8 9 -16 7 -19 -9 -8 47 -128 56 -122 5 3 6 -1 4 -8 -9 -24 87 -130 166
-184 127 -86 275 -123 494 -123 144 -1 232 10 540 64 412 73 629 46 725 -87
38 -52 52 -101 59 -206 l6 -83 59 97 c126 206 214 416 237 567 14 91 7 218
-17 277 -63 161 -225 259 -439 265 -55 2 -111 1 -125 -1z"/>
</g>
</svg>
